<svg xmlns="http://www.w3.org/2000/svg" width="400" height="266" viewBox="0 0 400 266">
  <defs>
    <linearGradient id="bg" x1="0%" y1="0%" x2="100%" y2="100%">
      <stop offset="0%" stop-color="#050f1c"/>
      <stop offset="100%" stop-color="#0c1e38"/>
    </linearGradient>
  </defs>

  <!-- Background -->
  <rect width="400" height="266" fill="url(#bg)"/>

  <!-- Subtle large ring top-right -->
  <circle cx="360" cy="50" r="110" fill="none" stroke="white" stroke-width="1" opacity="0.04"/>
  <circle cx="360" cy="50" r="75"  fill="none" stroke="white" stroke-width="1" opacity="0.04"/>

  <!-- Accent top bar -->
  <rect x="0" y="0" width="400" height="3" fill="#7dd3fc"/>

  <!-- Accent dot top-left -->
  <circle cx="28" cy="28" r="5" fill="#7dd3fc" opacity="0.7"/>

  <!-- Icon group -->
  <g>
      <path d="M158,170 C138,170 125,157 125,142 C125,128 136,117 150,116 C152,103 163,93 178,93 C188,93 197,98 203,106 C206,103 210,101 215,101 C227,101 237,111 237,123 C237,124 237,125 236,126 C245,129 252,138 252,148 C252,162 241,173 228,173 Z" fill="none" stroke="white" stroke-width="4" stroke-linecap="round" stroke-linejoin="round" opacity="0.9"/>
      <line x1="200" y1="173" x2="200" y2="193" stroke="white" stroke-width="4" stroke-linecap="round" opacity="0.5"/>
      <line x1="176" y1="193" x2="224" y2="193" stroke="white" stroke-width="4" stroke-linecap="round" opacity="0.5"/>
  </g>

  <!-- Bottom label bar -->
  <rect x="0" y="212" width="400" height="54" fill="black" opacity="0.42"/>
  <!-- Accent left stripe -->
  <rect x="0" y="212" width="3" height="54" fill="#7dd3fc"/>
  <text x="18" y="238" font-family="Arial,sans-serif" font-size="14" font-weight="bold" fill="white">Cloud Computing</text>
  <text x="18" y="254" font-family="Arial,sans-serif" font-size="10" fill="#7dd3fc" opacity="0.75">MUET Training Programme</text>
</svg>