<svg xmlns="http://www.w3.org/2000/svg" width="400" height="266" viewBox="0 0 400 266">
  <defs>
    <linearGradient id="bg" x1="0%" y1="0%" x2="100%" y2="100%">
      <stop offset="0%" stop-color="#050810"/>
      <stop offset="100%" stop-color="#0a0f1e"/>
    </linearGradient>
  </defs>

  <!-- Background -->
  <rect width="400" height="266" fill="url(#bg)"/>

  <!-- Subtle large ring top-right -->
  <circle cx="360" cy="50" r="110" fill="none" stroke="white" stroke-width="1" opacity="0.04"/>
  <circle cx="360" cy="50" r="75"  fill="none" stroke="white" stroke-width="1" opacity="0.04"/>

  <!-- Accent top bar -->
  <rect x="0" y="0" width="400" height="3" fill="#94a3b8"/>

  <!-- Accent dot top-left -->
  <circle cx="28" cy="28" r="5" fill="#94a3b8" opacity="0.7"/>

  <!-- Icon group -->
  <g>
      <path d="M200,105 L258,130 L258,172 C258,200 232,220 200,232 C168,220 142,200 142,172 L142,130 Z" fill="none" stroke="white" stroke-width="5" stroke-linecap="round" stroke-linejoin="round" opacity="0.9"/>
      <rect x="186" y="155" width="28" height="24" rx="4" fill="none" stroke="white" stroke-width="4" opacity="0.8"/>
      <path d="M190,155 L190,148 C190,142 210,142 210,148 L210,155" fill="none" stroke="white" stroke-width="4" stroke-linecap="round" opacity="0.8"/>
      <circle cx="200" cy="167" r="3" fill="white" opacity="0.9"/>
  </g>

  <!-- Bottom label bar -->
  <rect x="0" y="212" width="400" height="54" fill="black" opacity="0.42"/>
  <!-- Accent left stripe -->
  <rect x="0" y="212" width="3" height="54" fill="#94a3b8"/>
  <text x="18" y="238" font-family="Arial,sans-serif" font-size="14" font-weight="bold" fill="white">Cyber Security</text>
  <text x="18" y="254" font-family="Arial,sans-serif" font-size="10" fill="#94a3b8" opacity="0.75">MUET Training Programme</text>
</svg>