<svg xmlns="http://www.w3.org/2000/svg" width="400" height="266" viewBox="0 0 400 266">
  <defs>
    <linearGradient id="bg" x1="0%" y1="0%" x2="100%" y2="100%">
      <stop offset="0%" stop-color="#071c20"/>
      <stop offset="100%" stop-color="#0c2e35"/>
    </linearGradient>
  </defs>

  <!-- Background -->
  <rect width="400" height="266" fill="url(#bg)"/>

  <!-- Subtle large ring top-right -->
  <circle cx="360" cy="50" r="110" fill="none" stroke="white" stroke-width="1" opacity="0.04"/>
  <circle cx="360" cy="50" r="75"  fill="none" stroke="white" stroke-width="1" opacity="0.04"/>

  <!-- Accent top bar -->
  <rect x="0" y="0" width="400" height="3" fill="#22d3ee"/>

  <!-- Accent dot top-left -->
  <circle cx="28" cy="28" r="5" fill="#22d3ee" opacity="0.7"/>

  <!-- Icon group -->
  <g>
      <line x1="120" y1="200" x2="285" y2="200" stroke="white" stroke-width="3" stroke-linecap="round" opacity="0.3"/>
      <line x1="120" y1="200" x2="120" y2="108" stroke="white" stroke-width="3" stroke-linecap="round" opacity="0.3"/>
      <rect x="138" y="165" width="28" height="35" rx="3" fill="white" opacity="0.5"/>
      <rect x="178" y="140" width="28" height="60" rx="3" fill="white" opacity="0.7"/>
      <rect x="218" y="118" width="28" height="82" rx="3" fill="white" opacity="0.9"/>
      <circle cx="152" cy="155" r="5" fill="white"/>
      <circle cx="192" cy="130" r="5" fill="white"/>
      <circle cx="232" cy="108" r="5" fill="white"/>
      <polyline points="152,155 192,130 232,108" fill="none" stroke="white" stroke-width="2" stroke-dasharray="5,4" opacity="0.5"/>
  </g>

  <!-- Bottom label bar -->
  <rect x="0" y="212" width="400" height="54" fill="black" opacity="0.42"/>
  <!-- Accent left stripe -->
  <rect x="0" y="212" width="3" height="54" fill="#22d3ee"/>
  <text x="18" y="238" font-family="Arial,sans-serif" font-size="14" font-weight="bold" fill="white">Data Science</text>
  <text x="18" y="254" font-family="Arial,sans-serif" font-size="10" fill="#22d3ee" opacity="0.75">MUET Training Programme</text>
</svg>