<svg xmlns="http://www.w3.org/2000/svg" width="400" height="266" viewBox="0 0 400 266">
  <defs>
    <linearGradient id="bg" x1="0%" y1="0%" x2="100%" y2="100%">
      <stop offset="0%" stop-color="#1c0d00"/>
      <stop offset="100%" stop-color="#2d1a07"/>
    </linearGradient>
  </defs>

  <!-- Background -->
  <rect width="400" height="266" fill="url(#bg)"/>

  <!-- Subtle large ring top-right -->
  <circle cx="360" cy="50" r="110" fill="none" stroke="white" stroke-width="1" opacity="0.04"/>
  <circle cx="360" cy="50" r="75"  fill="none" stroke="white" stroke-width="1" opacity="0.04"/>

  <!-- Accent top bar -->
  <rect x="0" y="0" width="400" height="3" fill="#fdba74"/>

  <!-- Accent dot top-left -->
  <circle cx="28" cy="28" r="5" fill="#fdba74" opacity="0.7"/>

  <!-- Icon group -->
  <g>
      <path d="M186,118 C186,118 170,128 172,142 C174,152 190,156 190,156 C190,156 178,150 180,140 C181,133 190,128 190,128 C190,128 178,138 183,146 C186,151 200,154 200,154" fill="none" stroke="white" stroke-width="4" stroke-linecap="round" opacity="0.85"/>
      <path d="M176,168 C176,168 165,173 175,178 C185,183 218,183 228,178 C234,175 228,170 228,170" fill="none" stroke="white" stroke-width="4" stroke-linecap="round" opacity="0.7"/>
      <path d="M180,180 C180,180 169,185 179,190 C189,195 215,195 225,190 C231,187 228,183 228,183" fill="none" stroke="white" stroke-width="4" stroke-linecap="round" opacity="0.5"/>
      <text x="200" y="160" text-anchor="middle" font-family="Arial,sans-serif" font-size="13" font-weight="bold" fill="white" opacity="0.5" letter-spacing="3">JAVA</text>
  </g>

  <!-- Bottom label bar -->
  <rect x="0" y="212" width="400" height="54" fill="black" opacity="0.42"/>
  <!-- Accent left stripe -->
  <rect x="0" y="212" width="3" height="54" fill="#fdba74"/>
  <text x="18" y="238" font-family="Arial,sans-serif" font-size="14" font-weight="bold" fill="white">Java Development</text>
  <text x="18" y="254" font-family="Arial,sans-serif" font-size="10" fill="#fdba74" opacity="0.75">MUET Training Programme</text>
</svg>