<svg xmlns="http://www.w3.org/2000/svg" width="400" height="266" viewBox="0 0 400 266">
  <defs>
    <linearGradient id="bg" x1="0%" y1="0%" x2="100%" y2="100%">
      <stop offset="0%" stop-color="#071a10"/>
      <stop offset="100%" stop-color="#0e2d1c"/>
    </linearGradient>
  </defs>

  <!-- Background -->
  <rect width="400" height="266" fill="url(#bg)"/>

  <!-- Subtle large ring top-right -->
  <circle cx="360" cy="50" r="110" fill="none" stroke="white" stroke-width="1" opacity="0.04"/>
  <circle cx="360" cy="50" r="75"  fill="none" stroke="white" stroke-width="1" opacity="0.04"/>

  <!-- Accent top bar -->
  <rect x="0" y="0" width="400" height="3" fill="#4ade80"/>

  <!-- Accent dot top-left -->
  <circle cx="28" cy="28" r="5" fill="#4ade80" opacity="0.7"/>

  <!-- Icon group -->
  <g>
      <rect x="165" y="108" width="70" height="120" rx="12" fill="none" stroke="white" stroke-width="5" stroke-linecap="round"/>
      <line x1="183" y1="108" x2="183" y2="228" stroke="white" stroke-width="1" opacity="0.1"/>
      <line x1="217" y1="108" x2="217" y2="228" stroke="white" stroke-width="1" opacity="0.1"/>
      <rect x="184" y="118" width="32" height="6" rx="3" fill="white" opacity="0.5"/>
      <rect x="175" y="133" width="50" height="38" rx="6" fill="white" opacity="0.12"/>
      <rect x="175" y="179" width="22" height="6" rx="3" fill="white" opacity="0.4"/>
      <rect x="203" y="179" width="22" height="6" rx="3" fill="white" opacity="0.4"/>
      <circle cx="200" cy="214" r="7" fill="none" stroke="white" stroke-width="3" opacity="0.7"/>
  </g>

  <!-- Bottom label bar -->
  <rect x="0" y="212" width="400" height="54" fill="black" opacity="0.42"/>
  <!-- Accent left stripe -->
  <rect x="0" y="212" width="3" height="54" fill="#4ade80"/>
  <text x="18" y="238" font-family="Arial,sans-serif" font-size="14" font-weight="bold" fill="white">Mobile App Development</text>
  <text x="18" y="254" font-family="Arial,sans-serif" font-size="10" fill="#4ade80" opacity="0.75">MUET Training Programme</text>
</svg>