<svg xmlns="http://www.w3.org/2000/svg" width="400" height="266" viewBox="0 0 400 266">
  <defs>
    <linearGradient id="bg" x1="0%" y1="0%" x2="100%" y2="100%">
      <stop offset="0%" stop-color="#0c1a2e"/>
      <stop offset="100%" stop-color="#0f2744"/>
    </linearGradient>
  </defs>

  <!-- Background -->
  <rect width="400" height="266" fill="url(#bg)"/>

  <!-- Subtle large ring top-right -->
  <circle cx="360" cy="50" r="110" fill="none" stroke="white" stroke-width="1" opacity="0.04"/>
  <circle cx="360" cy="50" r="75"  fill="none" stroke="white" stroke-width="1" opacity="0.04"/>

  <!-- Accent top bar -->
  <rect x="0" y="0" width="400" height="3" fill="#38bdf8"/>

  <!-- Accent dot top-left -->
  <circle cx="28" cy="28" r="5" fill="#38bdf8" opacity="0.7"/>

  <!-- Icon group -->
  <g>
      <path d="M182,130 C182,118 188,112 200,112 C212,112 218,118 218,130 L218,153 L182,153 Z" fill="none" stroke="white" stroke-width="5" stroke-linecap="round" stroke-linejoin="round" opacity="0.9"/>
      <path d="M182,130 L168,130 C158,130 155,136 155,145 C155,154 158,160 168,160 L182,160" fill="none" stroke="white" stroke-width="5" stroke-linecap="round" stroke-linejoin="round" opacity="0.6"/>
      <path d="M218,153 C218,165 212,171 200,171 C188,171 182,165 182,153 L182,130 L218,130 Z" fill="none" stroke="white" stroke-width="5" stroke-linecap="round" stroke-linejoin="round" opacity="0.9"/>
      <path d="M218,153 L232,153 C242,153 245,147 245,138 C245,129 242,123 232,123 L218,123" fill="none" stroke="white" stroke-width="5" stroke-linecap="round" stroke-linejoin="round" opacity="0.6"/>
      <circle cx="190" cy="134" r="4" fill="white" opacity="0.9"/>
      <circle cx="210" cy="149" r="4" fill="white" opacity="0.9"/>
  </g>

  <!-- Bottom label bar -->
  <rect x="0" y="212" width="400" height="54" fill="black" opacity="0.42"/>
  <!-- Accent left stripe -->
  <rect x="0" y="212" width="3" height="54" fill="#38bdf8"/>
  <text x="18" y="238" font-family="Arial,sans-serif" font-size="14" font-weight="bold" fill="white">Python Development</text>
  <text x="18" y="254" font-family="Arial,sans-serif" font-size="10" fill="#38bdf8" opacity="0.75">MUET Training Programme</text>
</svg>